<?xml version="1.0" encoding="iso-8859-1"?>
<!-- Generator: Adobe Illustrator 19.0.0, SVG Export Plug-In . SVG Version: 6.00 Build 0)  -->
<svg version="1.1" id="Layer_1" xmlns="http://www.w3.org/2000/svg" xmlns:xlink="http://www.w3.org/1999/xlink" x="0px" y="0px"
	 viewBox="0 0 512 512" style="enable-background:new 0 0 512 512;" xml:space="preserve">
<polygon style="fill:#2E2E30;" points="486.564,475.373 25.436,475.373 8.444,319.56 503.556,319.56 "/>
<path style="fill:#FF3502;" d="M41.079,319.56c0-118.697,96.223-200.783,214.92-200.783s214.92,82.086,214.92,200.783H41.079z"/>
<g>
	<path style="fill:#FECE00;" d="M156.199,319.56c0-118.697,44.682-200.783,99.8-200.783s99.8,82.086,99.8,200.783H156.199z"/>
	<circle style="fill:#FECE00;" cx="256" cy="383.031" r="37.34"/>
</g>
<circle style="fill:#2E2E30;" cx="256" cy="97.505" r="21.276"/>
<g>
	<path style="fill:#CD2A01;" d="M467.939,284.199H354.415c0.906,11.37,1.384,23.169,1.384,35.362h115.12
		C470.921,307.368,469.889,295.569,467.939,284.199z"/>
	<path style="fill:#CD2A01;" d="M44.061,284.199c-1.951,11.37-2.982,23.169-2.982,35.362h115.12c0-12.192,0.479-23.99,1.384-35.362
		H44.061z"/>
</g>
<path style="fill:#DDB201;" d="M157.585,284.199c-0.906,11.37-1.384,23.169-1.384,35.362h199.6c0-12.192-0.479-23.99-1.384-35.362
	H157.585z"/>
<path d="M478.348,311.987c-1.914-55.711-24.913-106.233-65.282-142.934c-35.361-32.147-81.677-51.834-132.366-56.667
	c2.629-4.348,4.144-9.44,4.144-14.881c0-15.905-12.939-28.845-28.845-28.845s-28.845,12.939-28.845,28.845
	c0,5.441,1.516,10.534,4.144,14.881c-50.688,4.833-97.004,24.52-132.366,56.667c-40.369,36.701-63.369,87.223-65.282,142.934H0
	l18.644,170.959h474.713L512,311.987H478.348z M463.205,311.987h-99.901c-0.894-54.737-11.458-104.491-29.991-140.775
	c-8.548-16.735-18.536-30.211-29.551-40.125C394.899,149.633,459.79,220.87,463.205,311.987z M256,126.35
	c24.112,0,46.779,18.379,63.825,51.751c17.476,34.217,27.461,81.523,28.339,133.885H163.836
	c0.878-52.362,10.862-99.669,28.339-133.885C209.221,144.729,231.888,126.35,256,126.35z M242.302,97.505
	c0-7.553,6.145-13.699,13.699-13.699c7.554,0,13.699,6.145,13.699,13.699c0,7.554-6.146,13.699-13.699,13.699
	C248.447,111.204,242.302,105.058,242.302,97.505z M208.238,131.087c-11.016,9.914-21.005,23.391-29.551,40.125
	c-18.533,36.284-29.098,86.038-29.991,140.775H48.795C52.21,220.87,117.101,149.633,208.238,131.087z M482.963,438.54H186.826
	v15.147h294.484l-1.539,14.114H32.228l-1.539-14.114h81.816V438.54H29.037L16.889,327.134h16.618h115.12h214.747h115.12h16.618
	L482.963,438.54z M256,338.115c-24.765,0-44.913,20.148-44.913,44.913s20.148,44.913,44.913,44.913s44.913-20.148,44.913-44.913
	S280.764,338.115,256,338.115z M256,412.794c-16.413,0-29.766-13.353-29.766-29.766c0-16.413,13.353-29.766,29.766-29.766
	s29.766,13.353,29.766,29.766C285.767,399.44,272.413,412.794,256,412.794z M443.715,108.817h-19.854V93.671h19.854V73.817h15.147
	v19.854h19.854v15.147h-19.854v19.854h-15.147V108.817z M50.146,159.118H37.128v-15.147h13.018v-13.018h15.147v13.018h13.018v15.147
	H65.293v13.018H50.146C50.146,172.136,50.146,159.118,50.146,159.118z M371.152,95.776h-15.352V80.629h15.352V95.776z M234.012,44.2
	h-15.352V29.054h15.352V44.2z M154.95,103.054h-15.352V87.907h15.352V103.054z M128.534,438.54h37.48v15.147h-37.48V438.54z"/>
<g>
</g>
<g>
</g>
<g>
</g>
<g>
</g>
<g>
</g>
<g>
</g>
<g>
</g>
<g>
</g>
<g>
</g>
<g>
</g>
<g>
</g>
<g>
</g>
<g>
</g>
<g>
</g>
<g>
</g>
</svg>
